# xmcd
#
# Track frame offsets: 
#        150
#        20895
#        42210
#        58605
#        76138
#        100385
#        113855
#        130990
#        154903
#        177515
#        194553
#
# Disc length: 2798 seconds
#
# Revision: 2
# Processed by: cddbd v1.5.1PL0 Copyright (c) Steve Scherf et al.
# Submitted via: ExactAudioCopy v0.95a5
#
DISCID=990aec0b
DTITLE=Corey Stevens And Texas Flood - Blue Drops Of Rain
DYEAR=1995
DGENRE=Blues
TTITLE0=Gone Too Long
TTITLE1=Blue Drops Of Rain
TTITLE2=Crosscut Saw
TTITLE3=I Got A Rich Man's Woman
TTITLE4=It's Over
TTITLE5=Back In Time
TTITLE6=I'll Play The Blues
TTITLE7=Lenny
TTITLE8=The Brothers
TTITLE9=Headshrinker
TTITLE10=Goin' Crazy
EXTD=
EXTT0=
EXTT1=
EXTT2=
EXTT3=
EXTT4=
EXTT5=
EXTT6=
EXTT7=
EXTT8=
EXTT9=
EXTT10=
PLAYORDER=
